<?xml version="1.0" encoding="utf-8"?>
<!-- Generator: Adobe Illustrator 16.0.0, SVG Export Plug-In . SVG Version: 6.00 Build 0)  -->
<!DOCTYPE svg PUBLIC "-//W3C//DTD SVG 1.1//EN" "http://www.w3.org/Graphics/SVG/1.1/DTD/svg11.dtd">
<svg version="1.1" id="logo" xmlns="http://www.w3.org/2000/svg" xmlns:xlink="http://www.w3.org/1999/xlink" x="0px" y="0px"
	 width="227.5px" height="134.5px" viewBox="0 0 227.5 134.5" enable-background="new 0 0 227.5 134.5" xml:space="preserve">
<g>
	<path fill-rule="evenodd" clip-rule="evenodd" fill="#E2231A" d="M23.299,20.589c0,0,6.799,67.99,9.822,99.719
		c84.441-45.113,155.773-33.732,155.773-33.732s9.863-30.39,13.328-38.388C119.999,14.059,23.299,20.589,23.299,20.589"/>
	<path fill-rule="evenodd" clip-rule="evenodd" fill="#BFD245" d="M40.128,13.237l6.122,85.999
		c60.622-31.371,115.023-27.536,135.05-24.844l11.181-39.577C172.628,26.217,121.308,7.279,40.128,13.237"/>
	<path fill-rule="evenodd" clip-rule="evenodd" fill="#FFFFFF" d="M179.46,69.931C110.192,61.028,64.146,83.187,49.812,88.571
		l-5.297-67.609c48.826-7.139,117.517,4.119,143.82,15.258C185.501,47.23,182.884,58.125,179.46,69.931"/>
	<path fill="#009ED6" d="M136.634,50.466c-1.329-1.854-3.404-2.685-5.506-3.378c-0.854-0.279-2.048-0.507-2.667-1.23
		c-0.763-0.889,0.679-1.408,1.312-1.435c1.136-0.051,2.354,0.376,3.353,0.885c0.181,0.092,1.392,0.889,1.498,0.705
		c1.106-1.902,2.136-3.87,3.225-5.792C137.478,43.638,137.045,47.051,136.634,50.466 M110.861,54.266
		c-0.726,2.168-3.241,4.676-5.689,3.351c-2.4-1.299-2.748-4.669-1.979-7.012c0.717-2.168,2.818-4.625,5.365-3.62
		C111.248,48.05,111.714,51.879,110.861,54.266 M94.208,59.307c0.97,3.137,3.042,5.879,6.034,7.329
		c3.053,1.478,6.832,1.29,9.965,0.141c3.039-1.113,5.626-3.212,7.493-5.84c1.974-2.773,2.718-5.935,2.948-9.283
		c1.045,1.196,2.599,1.748,4.07,2.227c1.071,0.345,4.062,0.681,3.631,2.349c-0.426,1.63-3.438,0.849-4.453,0.418
		c-0.925-0.328-1.58-0.81-2.352-1.419c-1.204,2.56-2.412,5.117-3.623,7.671c-0.155,0.34,2.315,1.244,2.628,1.329
		c1.752,0.489,3.469,0.803,5.296,0.74c3.461-0.115,7.201-1.364,9.515-4.069l-0.465,3.585l7.386-0.28l1.097-8.376l4.824,8.284
		l10.075,0.221c0,0-7.348-12.062-7.901-12.989c0.698-0.658,10.824-9.306,10.824-9.306l-10.067-1.816c0,0-6.312,6.216-6.611,6.522
		l2.078-16.431l-7.389-1.13l-1.271,10.386c-3.083-2.03-7.488-2.828-11.105-2.179c-1.86,0.331-3.588,1.12-4.972,2.421
		c-1.4,1.325-2.121,3.01-2.553,4.858c-0.798-2.26-2.988-4.354-4.996-5.566c-2.09-1.264-4.461-1.734-6.879-1.762
		c-5.855,0.209-10.822,4.079-12.812,9.554l-9.474,0.664l-0.546,18.878c0,0-10.187-15.433-10.571-16.021
		c0.957-1.771,13.214-23.232,13.214-23.232l-11.847,1.778l-8.967,17.73l0.02-16.518l-9.46,1.93l0.074,45.951l9.216-2.509
		c0,0,0.059-14.875,0.06-17.126c0.298,0.488,9.286,14.812,9.286,14.812l18.229-3.954L94.208,59.307"/>
	<path fill="#009ED6" d="M169.37,55.231c-0.6,1.74-2.688,3.494-4.562,2.446c-1.831-1.029-2.146-3.55-1.503-5.367
		c0.617-1.743,2.562-3.508,4.486-2.535C169.665,50.729,170.105,53.417,169.37,55.231 M175.741,47.283
		c-2.14-3.441-6.052-5.263-10.072-4.822c-4.289,0.47-7.836,3.483-9.256,7.526c-1.307,3.724-1.248,8.677,1.271,11.908
		c2.733,3.511,7.521,4.197,11.538,2.633c3.188-1.24,5.926-3.859,7.109-7.088C177.521,54.188,177.502,50.328,175.741,47.283"/>
	<path fill="#009ED6" d="M89.438,46.082c2.903,0.502,5.794-1.752,6.232-4.635c0.429-2.831-1.443-5.933-4.482-6.125
		c-2.829-0.181-5.573,2.01-5.762,4.934C85.259,42.91,86.601,45.591,89.438,46.082"/>
	<path fill-rule="evenodd" clip-rule="evenodd" fill="#009ED6" d="M177.141,41.552l-0.783-0.19l-0.687,2.63l0.51,0.126l0.303-1.105
		l0.093,0.053c0.138,0.009,0.23,0.062,0.279,0.064c0.04,0.05,0.084,0.1,0.129,0.149c-0.002,0.047,0.044,0.05,0.039,0.098
		l0.043-0.655c0,0-0.047-0.002-0.093-0.004l-0.37-0.118l0.185-0.693l0.322,0.114L177.141,41.552z M176.886,45.525
		c-0.142-0.01-0.323-0.067-0.464-0.077c-1.384-0.37-2.231-1.786-1.862-3.168c0.313-1.199,1.445-2.021,2.659-1.942l-0.039,0.606
		c-0.935-0.06-1.82,0.542-2.062,1.465c-0.26,1.11,0.375,2.182,1.435,2.486c0.138,0.008,0.234,0.016,0.372,0.024L176.886,45.525
		 M177.023,43.376c0.04,0.094,0.079,0.24,0.117,0.382l0.236,0.671l0.646,0.181l-0.194-0.621c-0.076-0.238-0.113-0.382-0.154-0.478
		c-0.089-0.102-0.132-0.197-0.262-0.298c0.23,0.012,0.466-0.017,0.613-0.104c0.15-0.128,0.251-0.263,0.264-0.45
		c0.06-0.185,0.066-0.325,0.029-0.468c-0.037-0.144-0.125-0.244-0.261-0.346c-0.087-0.051-0.314-0.162-0.594-0.226l-0.324-0.068
		l-0.03,0.468l0.092,0.006c0.188,0.058,0.324,0.114,0.369,0.117c0.092,0.053,0.135,0.103,0.181,0.152
		c0.04,0.097,0.036,0.142-0.014,0.234c-0.009,0.093-0.056,0.136-0.104,0.18c-0.053,0.043-0.104,0.087-0.149,0.082
		c-0.095-0.003-0.19-0.01-0.418-0.072L177.023,43.376 M177.729,40.417c1.339,0.367,2.184,1.781,1.813,3.166
		c-0.307,1.201-1.439,2.021-2.657,1.943l0.038-0.606c0.941,0.056,1.821-0.542,2.065-1.465c0.304-1.061-0.376-2.186-1.438-2.439
		c-0.088-0.052-0.231-0.062-0.371-0.071l0.039-0.606C177.406,40.35,177.541,40.406,177.729,40.417"/>
	<path fill="#FFFFFF" d="M86.395,118.887v-8.561c0-0.674,0.534-1.206,1.208-1.206h6.083c0.595,0,1.081,0.484,1.081,1.08
		c0,0.598-0.486,1.066-1.081,1.066h-4.892v2.226h4.186c0.595,0,1.081,0.485,1.081,1.082s-0.486,1.066-1.081,1.066h-4.186v2.304h4.97
		c0.596,0,1.082,0.486,1.082,1.083c0,0.596-0.486,1.066-1.082,1.066h-6.162C86.929,120.094,86.395,119.561,86.395,118.887"/>
	<path fill="#FFFFFF" d="M96.113,119.294c-0.251-0.157-0.455-0.441-0.455-0.816c0-0.533,0.408-0.939,0.941-0.939
		c0.172,0,0.345,0.047,0.471,0.126c0.799,0.501,1.599,0.752,2.272,0.752c0.689,0,1.004-0.251,1.004-0.628v-0.031
		c0-0.516-0.816-0.689-1.742-0.971c-1.174-0.345-2.508-0.896-2.508-2.525v-0.029c0-1.71,1.38-2.665,3.074-2.665
		c0.878,0,1.788,0.232,2.602,0.642c0.345,0.171,0.565,0.484,0.565,0.892c0,0.533-0.424,0.943-0.955,0.943
		c-0.173,0-0.284-0.033-0.44-0.111c-0.674-0.329-1.317-0.533-1.818-0.533c-0.58,0-0.879,0.252-0.879,0.579v0.032
		c0,0.47,0.8,0.688,1.709,1.004c1.177,0.393,2.54,0.956,2.54,2.493v0.031c0,1.866-1.396,2.713-3.214,2.713
		C98.244,120.251,97.132,119.951,96.113,119.294"/>
	<path fill="#FFFFFF" d="M108.275,112.789c0-0.659,0.534-1.192,1.192-1.192s1.191,0.533,1.191,1.192v0.093
		c0.55-0.706,1.271-1.349,2.478-1.349c1.097,0,1.93,0.488,2.368,1.332c0.736-0.862,1.616-1.332,2.759-1.332
		c1.771,0,2.837,1.066,2.837,3.088v4.376c0,0.655-0.533,1.189-1.192,1.189c-0.656,0-1.191-0.534-1.191-1.189v-3.591
		c0-1.131-0.499-1.709-1.396-1.709c-0.891,0-1.442,0.578-1.442,1.709v3.591c0,0.655-0.532,1.189-1.191,1.189
		c-0.657,0-1.191-0.534-1.191-1.189v-3.591c0-1.131-0.5-1.709-1.394-1.709s-1.443,0.578-1.443,1.709v3.591
		c0,0.655-0.533,1.189-1.191,1.189s-1.192-0.534-1.192-1.189V112.789z"/>
	<path fill="#FFFFFF" d="M130.488,118.997c0,0.655-0.532,1.189-1.192,1.189c-0.658,0-1.189-0.534-1.189-1.189v-0.096
		c-0.55,0.707-1.256,1.35-2.462,1.35c-1.803,0-2.854-1.193-2.854-3.121v-4.341c0-0.659,0.533-1.192,1.189-1.192
		c0.66,0,1.192,0.533,1.192,1.192v3.588c0,1.13,0.534,1.71,1.442,1.71c0.91,0,1.492-0.58,1.492-1.71v-3.588
		c0-0.659,0.531-1.192,1.189-1.192c0.66,0,1.192,0.533,1.192,1.192V118.997z"/>
	<path fill="#FFFFFF" d="M132.742,122.43c-0.344-0.126-0.752-0.408-0.752-0.99c0-0.579,0.456-0.969,0.94-0.969
		c0.188,0,0.299,0.029,0.392,0.06c0.205,0.064,0.329,0.097,0.503,0.097c0.423,0,0.626-0.078,0.848-0.502l0.078-0.188l-2.87-6.647
		c-0.062-0.155-0.125-0.391-0.125-0.548c0-0.675,0.519-1.145,1.175-1.145c0.597,0,0.943,0.327,1.144,0.893l1.822,4.892l1.754-4.875
		c0.189-0.503,0.533-0.909,1.145-0.909s1.128,0.47,1.128,1.096c0,0.189-0.062,0.455-0.109,0.563l-2.931,7.04
		c-0.707,1.711-1.413,2.354-2.838,2.354C133.512,122.649,133.135,122.571,132.742,122.43"/>
	<path fill="#FFFFFF" d="M145.566,112.789c0-0.659,0.532-1.192,1.188-1.192c0.659,0,1.192,0.533,1.192,1.192v0.093
		c0.55-0.706,1.254-1.349,2.461-1.349c1.804,0,2.854,1.191,2.854,3.119v4.345c0,0.655-0.534,1.189-1.191,1.189
		c-0.661,0-1.193-0.534-1.193-1.189v-3.591c0-1.131-0.533-1.709-1.441-1.709c-0.91,0-1.489,0.578-1.489,1.709v3.591
		c0,0.655-0.533,1.189-1.192,1.189c-0.656,0-1.188-0.534-1.188-1.189V112.789z"/>
	<path fill="#FFFFFF" d="M162.649,118.997c0,0.655-0.532,1.189-1.192,1.189c-0.656,0-1.19-0.534-1.19-1.189v-0.096
		c-0.548,0.707-1.252,1.35-2.461,1.35c-1.802,0-2.853-1.193-2.853-3.121v-4.341c0-0.659,0.533-1.192,1.191-1.192
		s1.191,0.533,1.191,1.192v3.588c0,1.13,0.532,1.71,1.442,1.71c0.911,0,1.488-0.58,1.488-1.71v-3.588
		c0-0.659,0.534-1.192,1.19-1.192c0.66,0,1.192,0.533,1.192,1.192V118.997z"/>
	<path fill="#FFFFFF" d="M168.448,120.281c-2.524,0-4.39-1.771-4.39-4.343v-0.032c0-2.396,1.708-4.373,4.156-4.373
		c2.805,0,4.043,2.305,4.043,4.044c0,0.689-0.485,1.145-1.113,1.145h-4.719c0.235,1.083,0.988,1.646,2.055,1.646
		c0.659,0,1.207-0.202,1.693-0.562c0.173-0.127,0.33-0.188,0.58-0.188c0.532,0,0.925,0.406,0.925,0.939
		c0,0.313-0.14,0.55-0.314,0.706C170.629,119.889,169.672,120.281,168.448,120.281 M169.984,115.232
		c-0.14-1.066-0.768-1.787-1.77-1.787c-0.989,0-1.631,0.707-1.819,1.787H169.984z"/>
	<path fill="#FFFFFF" d="M173.541,119.294c-0.248-0.157-0.455-0.441-0.455-0.816c0-0.533,0.407-0.939,0.942-0.939
		c0.174,0,0.342,0.047,0.47,0.126c0.801,0.501,1.599,0.752,2.274,0.752c0.688,0,1.001-0.251,1.001-0.628v-0.031
		c0-0.516-0.813-0.689-1.738-0.971c-1.176-0.345-2.508-0.896-2.508-2.525v-0.029c0-1.71,1.377-2.665,3.073-2.665
		c0.876,0,1.784,0.232,2.601,0.642c0.346,0.171,0.566,0.484,0.566,0.892c0,0.533-0.424,0.943-0.958,0.943
		c-0.172,0-0.282-0.033-0.44-0.111c-0.672-0.329-1.315-0.533-1.817-0.533c-0.581,0-0.879,0.252-0.879,0.579v0.032
		c0,0.47,0.801,0.688,1.711,1.004c1.173,0.393,2.538,0.956,2.538,2.493v0.031c0,1.866-1.395,2.713-3.213,2.713
		C175.673,120.251,174.56,119.951,173.541,119.294"/>
	<path fill="#FFFFFF" d="M181.552,117.709v-3.979h-0.077c-0.563,0-1.019-0.455-1.019-1.019c0-0.566,0.455-1.021,1.019-1.021h0.077
		v-1.05c0-0.659,0.534-1.192,1.192-1.192s1.189,0.533,1.189,1.192v1.05h1.053c0.563,0,1.019,0.455,1.019,1.021
		c0,0.563-0.455,1.019-1.019,1.019h-1.053v3.59c0,0.547,0.236,0.813,0.769,0.813c0.079,0,0.236-0.015,0.284-0.015
		c0.534,0,0.987,0.438,0.987,0.988c0,0.424-0.281,0.768-0.61,0.891c-0.44,0.176-0.849,0.236-1.365,0.236
		C182.54,120.233,181.552,119.652,181.552,117.709"/>
	<path fill="#FFFFFF" d="M187.353,112.789c0-0.659,0.532-1.192,1.189-1.192c0.659,0,1.193,0.533,1.193,1.192v0.374
		c0.345-0.814,0.908-1.566,1.615-1.566c0.736,0,1.157,0.484,1.157,1.159c0,0.627-0.406,1.003-0.892,1.112
		c-1.206,0.284-1.881,1.208-1.881,2.901v2.228c0,0.655-0.534,1.189-1.193,1.189c-0.657,0-1.189-0.534-1.189-1.189V112.789z"/>
	<path fill="#FFFFFF" d="M192.948,115.938v-0.032c0-2.414,1.943-4.373,4.562-4.373c2.603,0,4.529,1.929,4.529,4.343v0.03
		c0,2.416-1.943,4.375-4.561,4.375C194.875,120.281,192.948,118.354,192.948,115.938 M199.689,115.938v-0.032
		c0-1.237-0.896-2.319-2.211-2.319c-1.365,0-2.18,1.05-2.18,2.289v0.03c0,1.239,0.894,2.322,2.211,2.322
		C198.873,118.229,199.689,117.176,199.689,115.938"/>
</g>
</svg>
